<svg xmlns="http://www.w3.org/2000/svg"  viewBox="0 0 100 100" width="50px" height="50px"><circle cx="50" cy="49" r="29" fill="#4b4dff"/><path fill="#4343bf" d="M50,81c-17.645,0-32-14.355-32-32s14.355-32,32-32s32,14.355,32,32S67.645,81,50,81z M50,23 c-14.337,0-26,11.663-26,26s11.663,26,26,26s26-11.663,26-26S64.337,23,50,23z"/><path fill="#ff8405" d="M50,85c-19.851,0-36-16.149-36-36h10c0,14.337,11.663,26,26,26s26-11.663,26-26h10 C86,68.851,69.851,85,50,85z"/><path fill="#edf7f5" d="M50,32v4c7.168,0,13,5.832,13,13s-5.832,13-13,13s-13-5.832-13-13c0-2.433,0.675-4.762,1.907-6.775 l3.593,3.833V35H32.134l3.973,4.238C34.115,42.066,33,45.444,33,49c0,9.374,7.626,17,17,17s17-7.626,17-17S59.374,32,50,32z"/></svg>